<svg xmlns="http://www.w3.org/2000/svg" width="444" height="358" viewBox="0 0 444 358" fill="none">
<path d="M87.725 319.95C80.025 319.95 74.25 317.75 70.4 313.35C66.55 309.133 64.625 303.817 64.625 297.4V280.075C64.625 275.125 65.0833 270.817 66 267.15C67.1 263.483 68.3833 260.183 69.85 257.25C71.3167 254.317 72.9667 251.75 74.8 249.55C76.6333 247.167 78.375 244.967 80.025 242.95C83.1417 239.283 85.25 236.167 86.35 233.6C87.6333 230.85 88.275 228.008 88.275 225.075C88.275 218.108 85.0667 213.067 78.65 209.95C72.2333 206.65 62.7917 205 50.325 205H28.875V187.95H50.325C62.7917 187.95 72.2333 186.392 78.65 183.275C85.0667 179.975 88.275 174.842 88.275 167.875C88.275 164.942 87.6333 162.192 86.35 159.625C85.25 156.875 83.1417 153.667 80.025 150C78.375 147.983 76.6333 145.875 74.8 143.675C72.9667 141.292 71.3167 138.725 69.85 135.975C68.3833 133.042 67.1 129.742 66 126.075C65.0833 122.225 64.625 117.825 64.625 112.875V95.55C64.625 89.1333 66.55 83.8167 70.4 79.6C74.25 75.2 80.025 73 87.725 73H136.125V90.05H83.6V111.225C83.6 118.742 84.7 124.517 86.9 128.55C89.1 132.583 91.6667 136.525 94.6 140.375C97.7167 144.408 100.65 148.625 103.4 153.025C106.15 157.242 107.525 162.283 107.525 168.15C107.525 175.85 104.775 182.083 99.275 186.85C93.9583 191.617 86.625 194.642 77.275 195.925V197.025C86.625 198.308 93.9583 201.333 99.275 206.1C104.775 210.867 107.525 217.1 107.525 224.8C107.525 230.667 106.15 235.8 103.4 240.2C100.65 244.417 97.7167 248.542 94.6 252.575C91.6667 256.425 89.1 260.367 86.9 264.4C84.7 268.433 83.6 274.208 83.6 281.725V302.9H136.125V319.95H87.725Z" fill="white"/>
<path d="M356.275 73C363.975 73 369.75 75.2 373.6 79.6C377.45 83.8167 379.375 89.1333 379.375 95.55V112.875C379.375 117.825 378.825 122.225 377.725 126.075C376.808 129.742 375.617 133.042 374.15 135.975C372.683 138.725 371.033 141.292 369.2 143.675C367.367 145.875 365.625 147.983 363.975 150C360.858 153.667 358.658 156.875 357.375 159.625C356.275 162.192 355.725 164.942 355.725 167.875C355.725 174.842 358.933 179.975 365.35 183.275C371.767 186.392 381.208 187.95 393.675 187.95H415.125V205H393.675C381.208 205 371.767 206.65 365.35 209.95C358.933 213.067 355.725 218.108 355.725 225.075C355.725 228.008 356.275 230.85 357.375 233.6C358.658 236.167 360.858 239.283 363.975 242.95C365.625 244.967 367.367 247.167 369.2 249.55C371.033 251.75 372.683 254.317 374.15 257.25C375.617 260.183 376.808 263.483 377.725 267.15C378.825 270.817 379.375 275.125 379.375 280.075V297.4C379.375 303.817 377.45 309.133 373.6 313.35C369.75 317.75 363.975 319.95 356.275 319.95H307.875V302.9H360.4V281.725C360.4 274.208 359.3 268.433 357.1 264.4C354.9 260.367 352.333 256.425 349.4 252.575C346.283 248.542 343.35 244.417 340.6 240.2C337.85 235.8 336.475 230.667 336.475 224.8C336.475 217.1 339.133 210.867 344.45 206.1C349.95 201.333 357.375 198.308 366.725 197.025V195.925C357.375 194.642 349.95 191.617 344.45 186.85C339.133 182.083 336.475 175.85 336.475 168.15C336.475 162.283 337.85 157.242 340.6 153.025C343.35 148.625 346.283 144.408 349.4 140.375C352.333 136.525 354.9 132.583 357.1 128.55C359.3 124.517 360.4 118.742 360.4 111.225V90.05H307.875V73H356.275Z" fill="white"/>
<path d="M205.083 213.782V210.053L201.51 208.99C173.454 200.635 153 174.669 153 143.917C153 106.407 183.407 76 220.917 76C258.426 76 288.833 106.407 288.833 143.917C288.833 174.669 268.379 200.635 240.323 208.99L236.75 210.053V213.782V316H205.083V300.167V295.167H200.083H173.833V263.5H200.083H205.083V258.5V213.782ZM220.917 180.167C240.938 180.167 257.167 163.939 257.167 143.917C257.167 123.895 240.938 107.667 220.917 107.667C200.895 107.667 184.667 123.895 184.667 143.917C184.667 163.939 200.895 180.167 220.917 180.167Z" stroke="#35958B" stroke-width="10"/>
</svg>