<svg width="22" height="19" viewBox="0 0 22 19" fill="none" xmlns="http://www.w3.org/2000/svg">
<rect width="22" height="19" fill="black"/>
<path d="M10.3321 9.708V9.52159L10.1534 9.4684C9.05246 9.14055 8.24996 8.12158 8.24996 6.915C8.24996 5.44316 9.44311 4.25 10.915 4.25C12.3868 4.25 13.58 5.44316 13.58 6.915C13.58 8.12158 12.7775 9.14055 11.6765 9.4684L11.4978 9.52159V9.708V13.7443H10.3321V13.1614V12.9114H10.0821H9.08281V11.7457H10.0821H10.3321V11.4957V9.708ZM10.915 8.41429C11.743 8.41429 12.4142 7.74309 12.4142 6.915C12.4142 6.08691 11.743 5.41571 10.915 5.41571C10.0869 5.41571 9.41567 6.08691 9.41567 6.915C9.41567 7.74309 10.0869 8.41429 10.915 8.41429Z" stroke="#35958B" stroke-width="0.5"/>
<path d="M3.828 14.656C3.492 14.656 3.24 14.56 3.072 14.368C2.904 14.184 2.82 13.952 2.82 13.672V12.916C2.82 12.7 2.84 12.512 2.88 12.352C2.928 12.192 2.984 12.048 3.048 11.92C3.112 11.792 3.184 11.68 3.264 11.584C3.344 11.48 3.42 11.384 3.492 11.296C3.628 11.136 3.72 11 3.768 10.888C3.824 10.768 3.852 10.644 3.852 10.516C3.852 10.212 3.712 9.992 3.432 9.856C3.152 9.712 2.74 9.64 2.196 9.64H1.26V8.896H2.196C2.74 8.896 3.152 8.828 3.432 8.692C3.712 8.548 3.852 8.324 3.852 8.02C3.852 7.892 3.824 7.772 3.768 7.66C3.72 7.54 3.628 7.4 3.492 7.24C3.42 7.152 3.344 7.06 3.264 6.964C3.184 6.86 3.112 6.748 3.048 6.628C2.984 6.5 2.928 6.356 2.88 6.196C2.84 6.028 2.82 5.836 2.82 5.62V4.864C2.82 4.584 2.904 4.352 3.072 4.168C3.24 3.976 3.492 3.88 3.828 3.88H5.94V4.624H3.648V5.548C3.648 5.876 3.696 6.128 3.792 6.304C3.888 6.48 4 6.652 4.128 6.82C4.264 6.996 4.392 7.18 4.512 7.372C4.632 7.556 4.692 7.776 4.692 8.032C4.692 8.368 4.572 8.64 4.332 8.848C4.1 9.056 3.78 9.188 3.372 9.244V9.292C3.78 9.348 4.1 9.48 4.332 9.688C4.572 9.896 4.692 10.168 4.692 10.504C4.692 10.76 4.632 10.984 4.512 11.176C4.392 11.36 4.264 11.54 4.128 11.716C4 11.884 3.888 12.056 3.792 12.232C3.696 12.408 3.648 12.66 3.648 12.988V13.912H5.94V14.656H3.828ZM17.7626 3.88C18.0986 3.88 18.3506 3.976 18.5186 4.168C18.6866 4.352 18.7706 4.584 18.7706 4.864V5.62C18.7706 5.836 18.7466 6.028 18.6986 6.196C18.6586 6.356 18.6066 6.5 18.5426 6.628C18.4786 6.748 18.4066 6.86 18.3266 6.964C18.2466 7.06 18.1706 7.152 18.0986 7.24C17.9626 7.4 17.8666 7.54 17.8106 7.66C17.7626 7.772 17.7386 7.892 17.7386 8.02C17.7386 8.324 17.8786 8.548 18.1586 8.692C18.4386 8.828 18.8506 8.896 19.3946 8.896H20.3306V9.64H19.3946C18.8506 9.64 18.4386 9.712 18.1586 9.856C17.8786 9.992 17.7386 10.212 17.7386 10.516C17.7386 10.644 17.7626 10.768 17.8106 10.888C17.8666 11 17.9626 11.136 18.0986 11.296C18.1706 11.384 18.2466 11.48 18.3266 11.584C18.4066 11.68 18.4786 11.792 18.5426 11.92C18.6066 12.048 18.6586 12.192 18.6986 12.352C18.7466 12.512 18.7706 12.7 18.7706 12.916V13.672C18.7706 13.952 18.6866 14.184 18.5186 14.368C18.3506 14.56 18.0986 14.656 17.7626 14.656H15.6506V13.912H17.9426V12.988C17.9426 12.66 17.8946 12.408 17.7986 12.232C17.7026 12.056 17.5906 11.884 17.4626 11.716C17.3266 11.54 17.1986 11.36 17.0786 11.176C16.9586 10.984 16.8986 10.76 16.8986 10.504C16.8986 10.168 17.0146 9.896 17.2466 9.688C17.4866 9.48 17.8106 9.348 18.2186 9.292V9.244C17.8106 9.188 17.4866 9.056 17.2466 8.848C17.0146 8.64 16.8986 8.368 16.8986 8.032C16.8986 7.776 16.9586 7.556 17.0786 7.372C17.1986 7.18 17.3266 6.996 17.4626 6.82C17.5906 6.652 17.7026 6.48 17.7986 6.304C17.8946 6.128 17.9426 5.876 17.9426 5.548V4.624H15.6506V3.88H17.7626Z" fill="white"/>
</svg>
