<svg xmlns="http://www.w3.org/2000/svg" width="1764" height="358" viewBox="0 0 1764 358" fill="none">
<path d="M1407.73 319.95C1400.03 319.95 1394.25 317.75 1390.4 313.35C1386.55 309.133 1384.63 303.817 1384.63 297.4V280.075C1384.63 275.125 1385.08 270.817 1386 267.15C1387.1 263.483 1388.38 260.183 1389.85 257.25C1391.32 254.317 1392.97 251.75 1394.8 249.55C1396.63 247.167 1398.38 244.967 1400.03 242.95C1403.14 239.283 1405.25 236.167 1406.35 233.6C1407.63 230.85 1408.28 228.008 1408.28 225.075C1408.28 218.108 1405.07 213.067 1398.65 209.95C1392.23 206.65 1382.79 205 1370.33 205H1348.88V187.95H1370.33C1382.79 187.95 1392.23 186.392 1398.65 183.275C1405.07 179.975 1408.28 174.842 1408.28 167.875C1408.28 164.942 1407.63 162.192 1406.35 159.625C1405.25 156.875 1403.14 153.667 1400.03 150C1398.38 147.983 1396.63 145.875 1394.8 143.675C1392.97 141.292 1391.32 138.725 1389.85 135.975C1388.38 133.042 1387.1 129.742 1386 126.075C1385.08 122.225 1384.63 117.825 1384.63 112.875V95.55C1384.63 89.1333 1386.55 83.8167 1390.4 79.6C1394.25 75.2 1400.03 73 1407.73 73H1456.13V90.05H1403.6V111.225C1403.6 118.742 1404.7 124.517 1406.9 128.55C1409.1 132.583 1411.67 136.525 1414.6 140.375C1417.72 144.408 1420.65 148.625 1423.4 153.025C1426.15 157.242 1427.53 162.283 1427.53 168.15C1427.53 175.85 1424.78 182.083 1419.28 186.85C1413.96 191.617 1406.63 194.642 1397.28 195.925V197.025C1406.63 198.308 1413.96 201.333 1419.28 206.1C1424.78 210.867 1427.53 217.1 1427.53 224.8C1427.53 230.667 1426.15 235.8 1423.4 240.2C1420.65 244.417 1417.72 248.542 1414.6 252.575C1411.67 256.425 1409.1 260.367 1406.9 264.4C1404.7 268.433 1403.6 274.208 1403.6 281.725V302.9H1456.13V319.95H1407.73Z" fill="white"/>
<path d="M1676.28 73C1683.98 73 1689.75 75.2 1693.6 79.6C1697.45 83.8167 1699.38 89.1333 1699.38 95.55V112.875C1699.38 117.825 1698.83 122.225 1697.73 126.075C1696.81 129.742 1695.62 133.042 1694.15 135.975C1692.68 138.725 1691.03 141.292 1689.2 143.675C1687.37 145.875 1685.63 147.983 1683.98 150C1680.86 153.667 1678.66 156.875 1677.38 159.625C1676.28 162.192 1675.73 164.942 1675.73 167.875C1675.73 174.842 1678.93 179.975 1685.35 183.275C1691.77 186.392 1701.21 187.95 1713.68 187.95H1735.13V205H1713.68C1701.21 205 1691.77 206.65 1685.35 209.95C1678.93 213.067 1675.73 218.108 1675.73 225.075C1675.73 228.008 1676.28 230.85 1677.38 233.6C1678.66 236.167 1680.86 239.283 1683.98 242.95C1685.63 244.967 1687.37 247.167 1689.2 249.55C1691.03 251.75 1692.68 254.317 1694.15 257.25C1695.62 260.183 1696.81 263.483 1697.73 267.15C1698.83 270.817 1699.38 275.125 1699.38 280.075V297.4C1699.38 303.817 1697.45 309.133 1693.6 313.35C1689.75 317.75 1683.98 319.95 1676.28 319.95H1627.88V302.9H1680.4V281.725C1680.4 274.208 1679.3 268.433 1677.1 264.4C1674.9 260.367 1672.33 256.425 1669.4 252.575C1666.28 248.542 1663.35 244.417 1660.6 240.2C1657.85 235.8 1656.48 230.667 1656.48 224.8C1656.48 217.1 1659.13 210.867 1664.45 206.1C1669.95 201.333 1677.38 198.308 1686.73 197.025V195.925C1677.38 194.642 1669.95 191.617 1664.45 186.85C1659.13 182.083 1656.48 175.85 1656.48 168.15C1656.48 162.283 1657.85 157.242 1660.6 153.025C1663.35 148.625 1666.28 144.408 1669.4 140.375C1672.33 136.525 1674.9 132.583 1677.1 128.55C1679.3 124.517 1680.4 118.742 1680.4 111.225V90.05H1627.88V73H1676.28Z" fill="white"/>
<path d="M1525.08 213.782V210.053L1521.51 208.99C1493.45 200.635 1473 174.669 1473 143.917C1473 106.407 1503.41 76 1540.92 76C1578.43 76 1608.83 106.407 1608.83 143.917C1608.83 174.669 1588.38 200.635 1560.32 208.99L1556.75 210.053V213.782V316H1525.08V300.167V295.167H1520.08H1493.83V263.5H1520.08H1525.08V258.5V213.782ZM1540.92 180.167C1560.94 180.167 1577.17 163.939 1577.17 143.917C1577.17 123.895 1560.94 107.667 1540.92 107.667C1520.89 107.667 1504.67 123.895 1504.67 143.917C1504.67 163.939 1520.89 180.167 1540.92 180.167Z" stroke="#35958B" stroke-width="10"/>
<path d="M89.375 282C78.5583 282 70.5833 278.975 65.45 272.925C60.5 266.875 58.025 259.083 58.025 249.55V158.8H10.725V140.1H45.925C50.6917 140.1 53.9917 139.183 55.825 137.35C57.8417 135.333 58.85 131.942 58.85 127.175V90.05H80.025V140.1H144.65V158.8H80.025V263.3H144.65V282H89.375ZM293.318 140.1H315.318L244.918 313.075C243.268 317.108 241.434 320.592 239.418 323.525C237.401 326.642 235.018 329.117 232.268 330.95C229.518 332.967 226.218 334.433 222.368 335.35C218.518 336.45 213.934 337 208.618 337H187.718V318.3H220.718L236.668 279.25L179.468 140.1H202.018L225.943 199.5L247.118 253.4H248.218L269.393 199.5L293.318 140.1ZM355.91 140.1H377.91V163.2H379.01C388.177 145.6 402.752 136.8 422.735 136.8C440.152 136.8 453.718 143.308 463.435 156.325C473.335 169.342 478.285 187.583 478.285 211.05C478.285 234.517 473.335 252.758 463.435 265.775C453.718 278.792 440.152 285.3 422.735 285.3C402.752 285.3 388.177 276.5 379.01 258.9H377.91V337H355.91V140.1ZM414.21 265.775C427.043 265.775 436.943 261.925 443.91 254.225C451.06 246.342 454.635 235.983 454.635 223.15V198.95C454.635 186.117 451.06 175.85 443.91 168.15C436.943 160.267 427.043 156.325 414.21 156.325C409.26 156.325 404.585 156.967 400.185 158.25C395.785 159.533 391.935 161.458 388.635 164.025C385.335 166.408 382.677 169.433 380.66 173.1C378.827 176.583 377.91 180.708 377.91 185.475V236.625C377.91 241.392 378.827 245.608 380.66 249.275C382.677 252.758 385.335 255.783 388.635 258.35C391.935 260.733 395.785 262.567 400.185 263.85C404.585 265.133 409.26 265.775 414.21 265.775ZM579.653 285.3C569.386 285.3 560.128 283.558 551.878 280.075C543.811 276.592 536.844 271.642 530.978 265.225C525.294 258.625 520.894 250.833 517.778 241.85C514.661 232.683 513.103 222.508 513.103 211.325C513.103 199.958 514.661 189.692 517.778 180.525C521.078 171.358 525.569 163.567 531.253 157.15C536.936 150.55 543.719 145.508 551.603 142.025C559.669 138.542 568.561 136.8 578.278 136.8C587.811 136.8 596.428 138.542 604.128 142.025C612.011 145.508 618.703 150.367 624.203 156.6C629.703 162.65 633.919 169.892 636.853 178.325C639.786 186.758 641.253 196.017 641.253 206.1V216.55H536.203V223.15C536.203 229.383 537.211 235.158 539.228 240.475C541.244 245.792 544.086 250.375 547.753 254.225C551.603 258.075 556.186 261.1 561.503 263.3C567.003 265.317 573.053 266.325 579.653 266.325C589.186 266.325 597.436 264.125 604.403 259.725C611.369 255.325 616.686 249.275 620.353 241.575L636.578 252.575C632.361 262.108 625.303 269.992 615.403 276.225C605.686 282.275 593.769 285.3 579.653 285.3ZM578.278 154.95C572.228 154.95 566.636 156.05 561.503 158.25C556.369 160.45 551.878 163.475 548.028 167.325C544.361 171.175 541.428 175.758 539.228 181.075C537.211 186.208 536.203 191.892 536.203 198.125V200.05H617.603V197.025C617.603 190.792 616.594 185.108 614.578 179.975C612.744 174.842 610.086 170.442 606.603 166.775C603.303 162.925 599.178 159.992 594.228 157.975C589.461 155.958 584.144 154.95 578.278 154.95ZM795.695 282C787.079 282 780.937 279.8 777.27 275.4C773.604 271 771.312 265.5 770.395 258.9H769.02C765.904 267.15 760.862 273.658 753.895 278.425C747.112 283.008 737.945 285.3 726.395 285.3C711.545 285.3 699.72 281.45 690.92 273.75C682.12 266.05 677.72 255.508 677.72 242.125C677.72 228.925 682.487 218.75 692.02 211.6C701.737 204.45 717.32 200.875 738.77 200.875H769.02V186.85C769.02 176.4 766.087 168.608 760.22 163.475C754.354 158.158 746.012 155.5 735.195 155.5C725.662 155.5 717.87 157.425 711.82 161.275C705.77 164.942 700.912 169.983 697.245 176.4L682.395 165.4C684.229 161.733 686.704 158.158 689.82 154.675C692.937 151.192 696.787 148.167 701.37 145.6C705.954 142.85 711.179 140.742 717.045 139.275C722.912 137.625 729.42 136.8 736.57 136.8C753.254 136.8 766.454 141.017 776.17 149.45C786.07 157.883 791.02 169.617 791.02 184.65V262.75H810.82V282H795.695ZM730.245 266.875C735.929 266.875 741.062 266.233 745.645 264.95C750.412 263.483 754.537 261.65 758.02 259.45C761.504 257.067 764.162 254.317 765.995 251.2C768.012 247.9 769.02 244.417 769.02 240.75V217.375H738.77C725.57 217.375 715.945 219.208 709.895 222.875C703.845 226.542 700.82 231.858 700.82 238.825V244.6C700.82 251.933 703.387 257.525 708.52 261.375C713.837 265.042 721.079 266.875 730.245 266.875ZM940.513 258.9H939.413C937.946 262.383 936.113 265.775 933.913 269.075C931.713 272.192 928.963 274.942 925.663 277.325C922.546 279.708 918.788 281.633 914.388 283.1C909.988 284.567 904.855 285.3 898.988 285.3C884.138 285.3 872.221 280.625 863.238 271.275C854.255 261.742 849.763 248.358 849.763 231.125V140.1H871.763V227.275C871.763 240.292 874.605 250.008 880.288 256.425C885.971 262.658 894.313 265.775 905.313 265.775C909.713 265.775 914.021 265.225 918.238 264.125C922.455 263.025 926.213 261.375 929.513 259.175C932.813 256.975 935.471 254.225 937.488 250.925C939.505 247.442 940.513 243.317 940.513 238.55V140.1H962.513V282H940.513V258.9ZM1078.73 282C1067.91 282 1059.94 278.975 1054.81 272.925C1049.86 266.875 1047.38 259.083 1047.38 249.55V158.8H1000.08V140.1H1035.28C1040.05 140.1 1043.35 139.183 1045.18 137.35C1047.2 135.333 1048.21 131.942 1048.21 127.175V90.05H1069.38V140.1H1134.01V158.8H1069.38V263.3H1134.01V282H1078.73ZM1181.2 78.5H1203.2V163.2H1204.3C1205.76 159.717 1207.6 156.417 1209.8 153.3C1212 150 1214.66 147.158 1217.77 144.775C1221.07 142.392 1224.92 140.467 1229.32 139C1233.72 137.533 1238.86 136.8 1244.72 136.8C1259.57 136.8 1271.49 141.567 1280.47 151.1C1289.46 160.45 1293.95 173.742 1293.95 190.975V282H1271.95V194.825C1271.95 181.808 1269.11 172.183 1263.42 165.95C1257.74 159.533 1249.4 156.325 1238.4 156.325C1234 156.325 1229.69 156.875 1225.47 157.975C1221.26 159.075 1217.5 160.725 1214.2 162.925C1210.9 165.125 1208.24 167.967 1206.22 171.45C1204.21 174.933 1203.2 178.967 1203.2 183.55V282H1181.2V78.5Z" fill="white"/>
</svg>