<svg width="80" height="16" viewBox="0 0 80 16" fill="none" xmlns="http://www.w3.org/2000/svg">
<path d="M3.9 13C3.428 13 3.08 12.868 2.856 12.604C2.64 12.34 2.532 12 2.532 11.584V7.624H0.468V6.808H2.004C2.212 6.808 2.356 6.768 2.436 6.688C2.524 6.6 2.568 6.452 2.568 6.244V4.624H3.492V6.808H6.312V7.624H3.492V12.184H6.312V13H3.9ZM12.7993 6.808H13.7593L10.6873 14.356C10.6153 14.532 10.5353 14.684 10.4473 14.812C10.3593 14.948 10.2553 15.056 10.1353 15.136C10.0153 15.224 9.87131 15.288 9.70331 15.328C9.53531 15.376 9.33531 15.4 9.10331 15.4H8.19131V14.584H9.63131L10.3273 12.88L7.83131 6.808H8.81531L9.85931 9.4L10.7833 11.752H10.8313L11.7553 9.4L12.7993 6.808ZM15.5306 6.808H16.4906V7.816H16.5386C16.9386 7.048 17.5746 6.664 18.4466 6.664C19.2066 6.664 19.7986 6.948 20.2226 7.516C20.6546 8.084 20.8706 8.88 20.8706 9.904C20.8706 10.928 20.6546 11.724 20.2226 12.292C19.7986 12.86 19.2066 13.144 18.4466 13.144C17.5746 13.144 16.9386 12.76 16.5386 11.992H16.4906V15.4H15.5306V6.808ZM18.0746 12.292C18.6346 12.292 19.0666 12.124 19.3706 11.788C19.6826 11.444 19.8386 10.992 19.8386 10.432V9.376C19.8386 8.816 19.6826 8.368 19.3706 8.032C19.0666 7.688 18.6346 7.516 18.0746 7.516C17.8586 7.516 17.6546 7.544 17.4626 7.6C17.2706 7.656 17.1026 7.74 16.9586 7.852C16.8146 7.956 16.6986 8.088 16.6106 8.248C16.5306 8.4 16.4906 8.58 16.4906 8.788V11.02C16.4906 11.228 16.5306 11.412 16.6106 11.572C16.6986 11.724 16.8146 11.856 16.9586 11.968C17.1026 12.072 17.2706 12.152 17.4626 12.208C17.6546 12.264 17.8586 12.292 18.0746 12.292ZM25.2939 13.144C24.8459 13.144 24.4419 13.068 24.0819 12.916C23.7299 12.764 23.4259 12.548 23.1699 12.268C22.9219 11.98 22.7299 11.64 22.5939 11.248C22.4579 10.848 22.3899 10.404 22.3899 9.916C22.3899 9.42 22.4579 8.972 22.5939 8.572C22.7379 8.172 22.9339 7.832 23.1819 7.552C23.4299 7.264 23.7259 7.044 24.0699 6.892C24.4219 6.74 24.8099 6.664 25.2339 6.664C25.6499 6.664 26.0259 6.74 26.3619 6.892C26.7059 7.044 26.9979 7.256 27.2379 7.528C27.4779 7.792 27.6619 8.108 27.7899 8.476C27.9179 8.844 27.9819 9.248 27.9819 9.688V10.144H23.3979V10.432C23.3979 10.704 23.4419 10.956 23.5299 11.188C23.6179 11.42 23.7419 11.62 23.9019 11.788C24.0699 11.956 24.2699 12.088 24.5019 12.184C24.7419 12.272 25.0059 12.316 25.2939 12.316C25.7099 12.316 26.0699 12.22 26.3739 12.028C26.6779 11.836 26.9099 11.572 27.0699 11.236L27.7779 11.716C27.5939 12.132 27.2859 12.476 26.8539 12.748C26.4299 13.012 25.9099 13.144 25.2939 13.144ZM25.2339 7.456C24.9699 7.456 24.7259 7.504 24.5019 7.6C24.2779 7.696 24.0819 7.828 23.9139 7.996C23.7539 8.164 23.6259 8.364 23.5299 8.596C23.4419 8.82 23.3979 9.068 23.3979 9.34V9.424H26.9499V9.292C26.9499 9.02 26.9059 8.772 26.8179 8.548C26.7379 8.324 26.6219 8.132 26.4699 7.972C26.3259 7.804 26.1459 7.676 25.9299 7.588C25.7219 7.5 25.4899 7.456 25.2339 7.456ZM34.7213 13C34.3453 13 34.0773 12.904 33.9173 12.712C33.7573 12.52 33.6573 12.28 33.6173 11.992H33.5573C33.4213 12.352 33.2013 12.636 32.8973 12.844C32.6013 13.044 32.2013 13.144 31.6973 13.144C31.0493 13.144 30.5333 12.976 30.1493 12.64C29.7653 12.304 29.5732 11.844 29.5732 11.26C29.5732 10.684 29.7813 10.24 30.1973 9.928C30.6213 9.616 31.3013 9.46 32.2373 9.46H33.5573V8.848C33.5573 8.392 33.4293 8.052 33.1733 7.828C32.9173 7.596 32.5533 7.48 32.0813 7.48C31.6653 7.48 31.3253 7.564 31.0613 7.732C30.7973 7.892 30.5853 8.112 30.4253 8.392L29.7773 7.912C29.8573 7.752 29.9653 7.596 30.1013 7.444C30.2373 7.292 30.4053 7.16 30.6053 7.048C30.8053 6.928 31.0333 6.836 31.2893 6.772C31.5453 6.7 31.8293 6.664 32.1413 6.664C32.8693 6.664 33.4453 6.848 33.8693 7.216C34.3013 7.584 34.5173 8.096 34.5173 8.752V12.16H35.3813V13H34.7213ZM31.8652 12.34C32.1133 12.34 32.3373 12.312 32.5373 12.256C32.7453 12.192 32.9253 12.112 33.0773 12.016C33.2293 11.912 33.3453 11.792 33.4253 11.656C33.5133 11.512 33.5573 11.36 33.5573 11.2V10.18H32.2373C31.6613 10.18 31.2413 10.26 30.9773 10.42C30.7133 10.58 30.5813 10.812 30.5813 11.116V11.368C30.5813 11.688 30.6933 11.932 30.9173 12.1C31.1493 12.26 31.4653 12.34 31.8652 12.34ZM41.0406 11.992H40.9926C40.9286 12.144 40.8486 12.292 40.7526 12.436C40.6566 12.572 40.5366 12.692 40.3926 12.796C40.2566 12.9 40.0926 12.984 39.9006 13.048C39.7086 13.112 39.4846 13.144 39.2286 13.144C38.5806 13.144 38.0606 12.94 37.6686 12.532C37.2766 12.116 37.0806 11.532 37.0806 10.78V6.808H38.0406V10.612C38.0406 11.18 38.1646 11.604 38.4126 11.884C38.6606 12.156 39.0246 12.292 39.5046 12.292C39.6966 12.292 39.8846 12.268 40.0686 12.22C40.2526 12.172 40.4166 12.1 40.5606 12.004C40.7046 11.908 40.8206 11.788 40.9086 11.644C40.9966 11.492 41.0406 11.312 41.0406 11.104V6.808H42.0006V13H41.0406V11.992ZM47.0719 13C46.5999 13 46.2519 12.868 46.0279 12.604C45.8119 12.34 45.7039 12 45.7039 11.584V7.624H43.6399V6.808H45.1759C45.3839 6.808 45.5279 6.768 45.6079 6.688C45.6959 6.6 45.7399 6.452 45.7399 6.244V4.624H46.6639V6.808H49.4839V7.624H46.6639V12.184H49.4839V13H47.0719ZM51.5432 4.12H52.5032V7.816H52.5512C52.6152 7.664 52.6952 7.52 52.7912 7.384C52.8872 7.24 53.0032 7.116 53.1392 7.012C53.2832 6.908 53.4512 6.824 53.6432 6.76C53.8352 6.696 54.0592 6.664 54.3152 6.664C54.9632 6.664 55.4832 6.872 55.8752 7.288C56.2672 7.696 56.4632 8.276 56.4632 9.028V13H55.5032V9.196C55.5032 8.628 55.3792 8.208 55.1312 7.936C54.8832 7.656 54.5192 7.516 54.0392 7.516C53.8472 7.516 53.6592 7.54 53.4752 7.588C53.2912 7.636 53.1272 7.708 52.9832 7.804C52.8392 7.9 52.7232 8.024 52.6352 8.176C52.5472 8.328 52.5032 8.504 52.5032 8.704V13H51.5432V4.12Z" fill="white"/>
<path d="M61.828 14.656C61.492 14.656 61.24 14.56 61.072 14.368C60.904 14.184 60.82 13.952 60.82 13.672V12.916C60.82 12.7 60.84 12.512 60.88 12.352C60.928 12.192 60.984 12.048 61.048 11.92C61.112 11.792 61.184 11.68 61.264 11.584C61.344 11.48 61.42 11.384 61.492 11.296C61.628 11.136 61.72 11 61.768 10.888C61.824 10.768 61.852 10.644 61.852 10.516C61.852 10.212 61.712 9.992 61.432 9.856C61.152 9.712 60.74 9.64 60.196 9.64H59.26V8.896H60.196C60.74 8.896 61.152 8.828 61.432 8.692C61.712 8.548 61.852 8.324 61.852 8.02C61.852 7.892 61.824 7.772 61.768 7.66C61.72 7.54 61.628 7.4 61.492 7.24C61.42 7.152 61.344 7.06 61.264 6.964C61.184 6.86 61.112 6.748 61.048 6.628C60.984 6.5 60.928 6.356 60.88 6.196C60.84 6.028 60.82 5.836 60.82 5.62V4.864C60.82 4.584 60.904 4.352 61.072 4.168C61.24 3.976 61.492 3.88 61.828 3.88H63.94V4.624H61.648V5.548C61.648 5.876 61.696 6.128 61.792 6.304C61.888 6.48 62 6.652 62.128 6.82C62.264 6.996 62.392 7.18 62.512 7.372C62.632 7.556 62.692 7.776 62.692 8.032C62.692 8.368 62.572 8.64 62.332 8.848C62.1 9.056 61.78 9.188 61.372 9.244V9.292C61.78 9.348 62.1 9.48 62.332 9.688C62.572 9.896 62.692 10.168 62.692 10.504C62.692 10.76 62.632 10.984 62.512 11.176C62.392 11.36 62.264 11.54 62.128 11.716C62 11.884 61.888 12.056 61.792 12.232C61.696 12.408 61.648 12.66 61.648 12.988V13.912H63.94V14.656H61.828ZM75.7626 3.88C76.0986 3.88 76.3506 3.976 76.5186 4.168C76.6866 4.352 76.7706 4.584 76.7706 4.864V5.62C76.7706 5.836 76.7466 6.028 76.6986 6.196C76.6586 6.356 76.6066 6.5 76.5426 6.628C76.4786 6.748 76.4066 6.86 76.3266 6.964C76.2466 7.06 76.1706 7.152 76.0986 7.24C75.9626 7.4 75.8666 7.54 75.8106 7.66C75.7626 7.772 75.7386 7.892 75.7386 8.02C75.7386 8.324 75.8786 8.548 76.1586 8.692C76.4386 8.828 76.8506 8.896 77.3946 8.896H78.3306V9.64H77.3946C76.8506 9.64 76.4386 9.712 76.1586 9.856C75.8786 9.992 75.7386 10.212 75.7386 10.516C75.7386 10.644 75.7626 10.768 75.8106 10.888C75.8666 11 75.9626 11.136 76.0986 11.296C76.1706 11.384 76.2466 11.48 76.3266 11.584C76.4066 11.68 76.4786 11.792 76.5426 11.92C76.6066 12.048 76.6586 12.192 76.6986 12.352C76.7466 12.512 76.7706 12.7 76.7706 12.916V13.672C76.7706 13.952 76.6866 14.184 76.5186 14.368C76.3506 14.56 76.0986 14.656 75.7626 14.656H73.6506V13.912H75.9426V12.988C75.9426 12.66 75.8946 12.408 75.7986 12.232C75.7026 12.056 75.5906 11.884 75.4626 11.716C75.3266 11.54 75.1986 11.36 75.0786 11.176C74.9586 10.984 74.8986 10.76 74.8986 10.504C74.8986 10.168 75.0146 9.896 75.2466 9.688C75.4866 9.48 75.8106 9.348 76.2186 9.292V9.244C75.8106 9.188 75.4866 9.056 75.2466 8.848C75.0146 8.64 74.8986 8.368 74.8986 8.032C74.8986 7.776 74.9586 7.556 75.0786 7.372C75.1986 7.18 75.3266 6.996 75.4626 6.82C75.5906 6.652 75.7026 6.48 75.7986 6.304C75.8946 6.128 75.9426 5.876 75.9426 5.548V4.624H73.6506V3.88H75.7626Z" fill="white"/>
<path d="M68.3321 9.708V9.52159L68.1534 9.4684C67.0525 9.14055 66.25 8.12158 66.25 6.915C66.25 5.44316 67.4431 4.25 68.915 4.25C70.3868 4.25 71.58 5.44316 71.58 6.915C71.58 8.12158 70.7775 9.14055 69.6765 9.4684L69.4978 9.52159V9.708V13.7443H68.3321V13.1614V12.9114H68.0821H67.0828V11.7457H68.0821H68.3321V11.4957V9.708ZM68.915 8.41429C69.743 8.41429 70.4142 7.74309 70.4142 6.915C70.4142 6.08691 69.743 5.41571 68.915 5.41571C68.0869 5.41571 67.4157 6.08691 67.4157 6.915C67.4157 7.74309 68.0869 8.41429 68.915 8.41429Z" stroke="#35958B" stroke-width="0.5"/>
</svg>
