<svg width="1763" height="358" viewBox="0 0 1763 358" fill="none" xmlns="http://www.w3.org/2000/svg">
<path d="M94.05 110.125V282H70.95V110.125H6.875V90.05H158.125V110.125H94.05ZM293.318 140.1H315.318L244.918 313.075C243.268 317.108 241.434 320.592 239.418 323.525C237.401 326.642 235.018 329.117 232.268 330.95C229.518 332.967 226.218 334.433 222.368 335.35C218.518 336.45 213.934 337 208.618 337H187.718V318.3H220.718L236.668 279.25L179.468 140.1H202.018L225.943 199.5L247.118 253.4H248.218L269.393 199.5L293.318 140.1ZM355.91 140.1H377.91V163.2H379.01C388.177 145.6 402.752 136.8 422.735 136.8C440.152 136.8 453.718 143.308 463.435 156.325C473.335 169.342 478.285 187.583 478.285 211.05C478.285 234.517 473.335 252.758 463.435 265.775C453.718 278.792 440.152 285.3 422.735 285.3C402.752 285.3 388.177 276.5 379.01 258.9H377.91V337H355.91V140.1ZM414.21 265.775C427.043 265.775 436.943 261.925 443.91 254.225C451.06 246.342 454.635 235.983 454.635 223.15V198.95C454.635 186.117 451.06 175.85 443.91 168.15C436.943 160.267 427.043 156.325 414.21 156.325C409.26 156.325 404.585 156.967 400.185 158.25C395.785 159.533 391.935 161.458 388.635 164.025C385.335 166.408 382.677 169.433 380.66 173.1C378.827 176.583 377.91 180.708 377.91 185.475V236.625C377.91 241.392 378.827 245.608 380.66 249.275C382.677 252.758 385.335 255.783 388.635 258.35C391.935 260.733 395.785 262.567 400.185 263.85C404.585 265.133 409.26 265.775 414.21 265.775ZM579.653 285.3C569.386 285.3 560.128 283.558 551.878 280.075C543.811 276.592 536.844 271.642 530.978 265.225C525.294 258.625 520.894 250.833 517.778 241.85C514.661 232.683 513.103 222.508 513.103 211.325C513.103 199.958 514.661 189.692 517.778 180.525C521.078 171.358 525.569 163.567 531.253 157.15C536.936 150.55 543.719 145.508 551.603 142.025C559.669 138.542 568.561 136.8 578.278 136.8C587.811 136.8 596.428 138.542 604.128 142.025C612.011 145.508 618.703 150.367 624.203 156.6C629.703 162.65 633.919 169.892 636.853 178.325C639.786 186.758 641.253 196.017 641.253 206.1V216.55H536.203V223.15C536.203 229.383 537.211 235.158 539.228 240.475C541.244 245.792 544.086 250.375 547.753 254.225C551.603 258.075 556.186 261.1 561.503 263.3C567.003 265.317 573.053 266.325 579.653 266.325C589.186 266.325 597.436 264.125 604.403 259.725C611.369 255.325 616.686 249.275 620.353 241.575L636.578 252.575C632.361 262.108 625.303 269.992 615.403 276.225C605.686 282.275 593.769 285.3 579.653 285.3ZM578.278 154.95C572.228 154.95 566.636 156.05 561.503 158.25C556.369 160.45 551.878 163.475 548.028 167.325C544.361 171.175 541.428 175.758 539.228 181.075C537.211 186.208 536.203 191.892 536.203 198.125V200.05H617.603V197.025C617.603 190.792 616.594 185.108 614.578 179.975C612.744 174.842 610.086 170.442 606.603 166.775C603.303 162.925 599.178 159.992 594.228 157.975C589.461 155.958 584.144 154.95 578.278 154.95ZM791.845 282L775.62 227.275H708.245L692.02 282H668.095L726.945 90.05H757.47L816.32 282H791.845ZM743.17 114.525H740.695L713.745 207.2H770.12L743.17 114.525ZM940.513 258.9H939.413C937.946 262.383 936.113 265.775 933.913 269.075C931.713 272.192 928.963 274.942 925.663 277.325C922.546 279.708 918.788 281.633 914.388 283.1C909.988 284.567 904.855 285.3 898.988 285.3C884.138 285.3 872.221 280.625 863.238 271.275C854.255 261.742 849.763 248.358 849.763 231.125V140.1H871.763V227.275C871.763 240.292 874.605 250.008 880.288 256.425C885.971 262.658 894.313 265.775 905.313 265.775C909.713 265.775 914.021 265.225 918.238 264.125C922.455 263.025 926.213 261.375 929.513 259.175C932.813 256.975 935.471 254.225 937.488 250.925C939.505 247.442 940.513 243.317 940.513 238.55V140.1H962.513V282H940.513V258.9ZM1078.73 282C1067.91 282 1059.94 278.975 1054.81 272.925C1049.86 266.875 1047.38 259.083 1047.38 249.55V158.8H1000.08V140.1H1035.28C1040.05 140.1 1043.35 139.183 1045.18 137.35C1047.2 135.333 1048.21 131.942 1048.21 127.175V90.05H1069.38V140.1H1134.01V158.8H1069.38V263.3H1134.01V282H1078.73ZM1181.2 78.5H1203.2V163.2H1204.3C1205.76 159.717 1207.6 156.417 1209.8 153.3C1212 150 1214.66 147.158 1217.77 144.775C1221.07 142.392 1224.92 140.467 1229.32 139C1233.72 137.533 1238.86 136.8 1244.72 136.8C1259.57 136.8 1271.49 141.567 1280.47 151.1C1289.46 160.45 1293.95 173.742 1293.95 190.975V282H1271.95V194.825C1271.95 181.808 1269.11 172.183 1263.42 165.95C1257.74 159.533 1249.4 156.325 1238.4 156.325C1234 156.325 1229.69 156.875 1225.47 157.975C1221.26 159.075 1217.5 160.725 1214.2 162.925C1210.9 165.125 1208.24 167.967 1206.22 171.45C1204.21 174.933 1203.2 178.967 1203.2 183.55V282H1181.2V78.5Z" fill="black"/>
<path d="M1406.73 319.95C1399.03 319.95 1393.25 317.75 1389.4 313.35C1385.55 309.133 1383.63 303.817 1383.63 297.4V280.075C1383.63 275.125 1384.08 270.817 1385 267.15C1386.1 263.483 1387.38 260.183 1388.85 257.25C1390.32 254.317 1391.97 251.75 1393.8 249.55C1395.63 247.167 1397.38 244.967 1399.03 242.95C1402.14 239.283 1404.25 236.167 1405.35 233.6C1406.63 230.85 1407.28 228.008 1407.28 225.075C1407.28 218.108 1404.07 213.067 1397.65 209.95C1391.23 206.65 1381.79 205 1369.33 205H1347.88V187.95H1369.33C1381.79 187.95 1391.23 186.392 1397.65 183.275C1404.07 179.975 1407.28 174.842 1407.28 167.875C1407.28 164.942 1406.63 162.192 1405.35 159.625C1404.25 156.875 1402.14 153.667 1399.03 150C1397.38 147.983 1395.63 145.875 1393.8 143.675C1391.97 141.292 1390.32 138.725 1388.85 135.975C1387.38 133.042 1386.1 129.742 1385 126.075C1384.08 122.225 1383.63 117.825 1383.63 112.875V95.55C1383.63 89.1333 1385.55 83.8167 1389.4 79.6C1393.25 75.2 1399.03 73 1406.73 73H1455.13V90.05H1402.6V111.225C1402.6 118.742 1403.7 124.517 1405.9 128.55C1408.1 132.583 1410.67 136.525 1413.6 140.375C1416.72 144.408 1419.65 148.625 1422.4 153.025C1425.15 157.242 1426.53 162.283 1426.53 168.15C1426.53 175.85 1423.78 182.083 1418.28 186.85C1412.96 191.617 1405.63 194.642 1396.28 195.925V197.025C1405.63 198.308 1412.96 201.333 1418.28 206.1C1423.78 210.867 1426.53 217.1 1426.53 224.8C1426.53 230.667 1425.15 235.8 1422.4 240.2C1419.65 244.417 1416.72 248.542 1413.6 252.575C1410.67 256.425 1408.1 260.367 1405.9 264.4C1403.7 268.433 1402.6 274.208 1402.6 281.725V302.9H1455.13V319.95H1406.73Z" fill="black"/>
<path d="M1675.28 73C1682.98 73 1688.75 75.2 1692.6 79.6C1696.45 83.8167 1698.38 89.1333 1698.38 95.55V112.875C1698.38 117.825 1697.83 122.225 1696.73 126.075C1695.81 129.742 1694.62 133.042 1693.15 135.975C1691.68 138.725 1690.03 141.292 1688.2 143.675C1686.37 145.875 1684.63 147.983 1682.98 150C1679.86 153.667 1677.66 156.875 1676.38 159.625C1675.28 162.192 1674.73 164.942 1674.73 167.875C1674.73 174.842 1677.93 179.975 1684.35 183.275C1690.77 186.392 1700.21 187.95 1712.68 187.95H1734.13V205H1712.68C1700.21 205 1690.77 206.65 1684.35 209.95C1677.93 213.067 1674.73 218.108 1674.73 225.075C1674.73 228.008 1675.28 230.85 1676.38 233.6C1677.66 236.167 1679.86 239.283 1682.98 242.95C1684.63 244.967 1686.37 247.167 1688.2 249.55C1690.03 251.75 1691.68 254.317 1693.15 257.25C1694.62 260.183 1695.81 263.483 1696.73 267.15C1697.83 270.817 1698.38 275.125 1698.38 280.075V297.4C1698.38 303.817 1696.45 309.133 1692.6 313.35C1688.75 317.75 1682.98 319.95 1675.28 319.95H1626.88V302.9H1679.4V281.725C1679.4 274.208 1678.3 268.433 1676.1 264.4C1673.9 260.367 1671.33 256.425 1668.4 252.575C1665.28 248.542 1662.35 244.417 1659.6 240.2C1656.85 235.8 1655.48 230.667 1655.48 224.8C1655.48 217.1 1658.13 210.867 1663.45 206.1C1668.95 201.333 1676.38 198.308 1685.73 197.025V195.925C1676.38 194.642 1668.95 191.617 1663.45 186.85C1658.13 182.083 1655.48 175.85 1655.48 168.15C1655.48 162.283 1656.85 157.242 1659.6 153.025C1662.35 148.625 1665.28 144.408 1668.4 140.375C1671.33 136.525 1673.9 132.583 1676.1 128.55C1678.3 124.517 1679.4 118.742 1679.4 111.225V90.05H1626.88V73H1675.28Z" fill="black"/>
<path d="M1524.08 213.782V210.053L1520.51 208.99C1492.45 200.635 1472 174.669 1472 143.917C1472 106.407 1502.41 76 1539.92 76C1577.43 76 1607.83 106.407 1607.83 143.917C1607.83 174.669 1587.38 200.635 1559.32 208.99L1555.75 210.053V213.782V316H1524.08V300.167V295.167H1519.08H1492.83V263.5H1519.08H1524.08V258.5V213.782ZM1539.92 180.167C1559.94 180.167 1576.17 163.939 1576.17 143.917C1576.17 123.895 1559.94 107.667 1539.92 107.667C1519.89 107.667 1503.67 123.895 1503.67 143.917C1503.67 163.939 1519.89 180.167 1539.92 180.167Z" stroke="#35958B" stroke-width="10"/>
</svg>
